<?xml version="1.0" standalone="no"?>
<svg viewBox="0 0 200 200" xmlns="http://www.w3.org/2000/svg">
  <path fill="#3F51B5" d="M49,-70.1C64.1,-66.6,77.2,-53.9,78.1,-39.3C79,-24.8,67.7,-8.3,59.5,4.5C51.3,17.3,46.2,26.4,41.3,40.5C36.4,54.5,31.8,73.4,20.8,81.3C9.9,89.2,-7.2,86.2,-21,78.8C-34.8,71.4,-45.1,59.8,-56.8,48.2C-68.5,36.6,-81.5,25.1,-79.3,13.9C-77.2,2.6,-59.8,-8.4,-48.6,-17.9C-37.5,-27.4,-32.7,-35.4,-25.6,-42.5C-18.6,-49.7,-9.3,-56.1,3.8,-62C17,-68,34,-73.6,49,-70.1Z" transform="translate(100 100)" />
</svg>
