<?xml version="1.0" standalone="no"?><svg xmlns="http://www.w3.org/2000/svg" viewBox="0 0 1440 320"><path fill="#e5e8f5" fill-opacity="1" d="M0,160L26.7,181.3C53.3,203,107,245,160,250.7C213.3,256,267,224,320,218.7C373.3,213,427,235,480,224C533.3,213,587,171,640,176C693.3,181,747,235,800,245.3C853.3,256,907,224,960,192C1013.3,160,1067,128,1120,138.7C1173.3,149,1227,203,1280,240C1333.3,277,1387,299,1413,309.3L1440,320L1440,320L1413.3,320C1386.7,320,1333,320,1280,320C1226.7,320,1173,320,1120,320C1066.7,320,1013,320,960,320C906.7,320,853,320,800,320C746.7,320,693,320,640,320C586.7,320,533,320,480,320C426.7,320,373,320,320,320C266.7,320,213,320,160,320C106.7,320,53,320,27,320L0,320Z"></path></svg>